<?xml version="1.0" encoding="utf-8"?>
<!-- Generator: Adobe Illustrator 19.0.0, SVG Export Plug-In . SVG Version: 6.00 Build 0)  -->
<svg version="1.1" id="Layer_1" xmlns="http://www.w3.org/2000/svg" xmlns:xlink="http://www.w3.org/1999/xlink" x="0px" y="0px"
	 viewBox="0 0 72 72" style="enable-background:new 0 0 72 72;" xml:space="preserve">
<style type="text/css">
	.st0{fill:#D0D2D3;}
	.st1{fill:#FFFFFF;}
	.st2{fill:#444345;}
	.st3{opacity:0.3;fill:url(#XMLID_2_);}
	.st4{fill:#F15D6A;}
	.st5{fill:#EF3740;}
	.st6{display:none;}
	.st7{display:inline;opacity:0.4;fill:#F15D6A;}
	.st8{display:inline;opacity:0.4;fill:#EF3740;}
	.st9{fill:#D9DADB;}
	.st10{fill:#C7C9CA;}
	.st11{opacity:0.7;fill:#9F948B;}
	.st12{opacity:0.8;fill:#F8A17A;}
	.st13{fill:url(#XMLID_3_);}
	.st14{fill:url(#XMLID_4_);}
	.st15{filter:url(#Adobe_OpacityMaskFilter);}
	.st16{fill:url(#XMLID_6_);}
	.st17{opacity:0.33;mask:url(#XMLID_5_);fill:url(#XMLID_7_);}
	.st18{filter:url(#Adobe_OpacityMaskFilter_1_);}
	.st19{fill:url(#XMLID_9_);}
	.st20{opacity:0.33;mask:url(#XMLID_8_);fill:url(#XMLID_10_);}
	.st21{opacity:0.9;}
	.st22{fill:url(#XMLID_11_);}
	.st23{fill:url(#XMLID_12_);}
	.st24{fill:url(#XMLID_13_);}
	.st25{fill:url(#XMLID_14_);}
	.st26{fill:#68C0C2;}
</style>
<g id="XMLID_136_">
	<g id="XMLID_147_">
		<polygon id="XMLID_148_" class="st0" points="20.6,65.9 5.4,70.6 5.4,33.5 20.6,28.8 		"/>
	</g>
	<g id="XMLID_145_">
		<polygon id="XMLID_146_" class="st0" points="51,65.9 35.8,70.6 35.8,33.5 51,28.8 		"/>
	</g>
	<g id="XMLID_143_">
		<polygon id="XMLID_144_" class="st1" points="35.8,70.6 20.6,65.9 20.6,28.8 35.8,33.5 		"/>
	</g>
	<g id="XMLID_141_">
		<polygon id="XMLID_142_" class="st1" points="66.2,70.6 51,65.9 51,28.8 66.2,33.5 		"/>
	</g>
	<g id="XMLID_137_">
		<path id="XMLID_138_" class="st2" d="M66.8,71.4L51,66.5l-15.2,4.7l-15.2-4.7L4.8,71.4V33.2l15.8-4.9L35.8,33L51,28.2l15.8,4.9
			V71.4z M20.6,65.3L35.8,70L51,65.3l14.6,4.5V33.9L51,29.4l-15.2,4.7l-15.2-4.7L6,33.9v35.9L20.6,65.3z"/>
	</g>
</g>
<radialGradient id="XMLID_2_" cx="435.3844" cy="315.6176" r="62.991" gradientTransform="matrix(0.2674 0 0 2.580110e-002 -81.106 49.1526)" gradientUnits="userSpaceOnUse">
	<stop  offset="0.181" style="stop-color:#000000"/>
	<stop  offset="1" style="stop-color:#000000;stop-opacity:0"/>
</radialGradient>
<ellipse id="XMLID_135_" class="st3" cx="35.3" cy="57.3" rx="18" ry="2"/>
<g id="XMLID_107_">
	<g id="XMLID_108_">
		<g id="XMLID_117_">
			<path id="XMLID_134_" class="st4" d="M35.2,11.1C23,11.1,13,19,13,28.7c0,0.3,0,0.5,0,0.8c0,0.1,0,0.1,0,0.2c0,0.2,0,0.5,0.1,0.7
				c0,0.1,0,0.1,0,0.2c0.6,4.4,3.1,9.2,7,13.2l31.3-27.1C47.4,13.2,41.6,11.1,35.2,11.1z"/>
			<path id="XMLID_133_" class="st5" d="M51.5,16.7L20.2,43.8c5.7,6,14.2,10.5,23.5,10.5c0,0-12.1-6.1-2.1-8.7c0,0,0,0,0,0
				c7-1.7,12.6-6.1,14.7-11.8c0.6-1.4,1-2.6,1-3.6c0-0.1,0-0.2-0.1-0.3c0-0.4,0.1-0.8,0.1-1.3C57.3,24.1,55.1,19.9,51.5,16.7z"/>
		</g>
		<g id="XMLID_114_" class="st6">
			<path id="XMLID_116_" class="st7" d="M57.3,28.7c0-4.6-2.2-8.8-5.9-12l-1.2,1c3.3,2.9,5.3,6.7,5.3,10.9c0,0.3,0,0.7-0.1,1.2
				l0,0.3l0.1,0.2c0,0.8-0.3,1.9-0.8,3l0,0l0,0c-2,5.2-7,9.2-13.6,10.8l0,0l0,0c0,0,0,0-0.1,0c-3.1,0.8-4.8,2.1-5.1,3.8
				c-0.2,1.3,0.5,2.7,2.1,4.2c-6.5-1.4-12.4-5-16.7-9.5l-1.2,1.1c5.7,6,14.2,10.5,23.5,10.5c0,0-12.1-6.1-2.1-8.7c0,0,0,0,0,0
				c7-1.7,12.6-6.1,14.7-11.8c0.6-1.4,1-2.6,1-3.6c0-0.1,0-0.2-0.1-0.3C57.3,29.6,57.3,29.1,57.3,28.7z"/>
			<path id="XMLID_115_" class="st8" d="M14.9,30.5c0-0.1,0-0.1,0-0.2c0-0.2,0-0.5-0.1-0.7c0,0,0-0.1,0-0.1l0-0.1c0-0.3,0-0.5,0-0.7
				c0-9,9.1-16.3,20.4-16.3c6,0,11.3,2.1,15.1,5.3l1.2-1c-4-3.5-9.8-5.7-16.3-5.7C23,11.1,13,19,13,28.7c0,0.3,0,0.5,0,0.8
				c0,0.1,0,0.1,0,0.2c0,0.2,0,0.5,0.1,0.7c0,0.1,0,0.1,0,0.2c0.6,4.4,3.1,9.2,7,13.2l1.2-1.1C17.8,39,15.5,34.6,14.9,30.5z"/>
		</g>
		<g id="XMLID_109_">
			<g id="XMLID_111_">
				<path id="XMLID_113_" class="st9" d="M26.6,38.9c2.3,1.3,5.1,2,8.2,2.1c8.5,0.2,15.6-5.2,15.8-11.9c0.1-2.9-1.1-5.7-3.2-7.8
					L26.6,38.9z"/>
				<path id="XMLID_112_" class="st10" d="M35.6,16.4c-8.5-0.2-15.6,5.2-15.8,11.9c-0.2,4.4,2.6,8.3,6.8,10.5l20.8-17.7
					C44.7,18.4,40.4,16.5,35.6,16.4z"/>
			</g>
			<path id="XMLID_110_" class="st1" d="M49.3,29c0.2-6.2-5.9-11.4-13.7-11.6s-14.3,4.7-14.5,10.9c-0.2,6.2,5.9,11.4,13.7,11.6
				C42.6,40.1,49.1,35.2,49.3,29z"/>
		</g>
	</g>
</g>
<g id="XMLID_17_">
	<path id="XMLID_106_" class="st11" d="M42.2,9.9c1.7,1,2.2,2.8,1,4.2c-0.5,0.5-1.1,0.9-1.8,1.1l0,0L41.3,16l-0.9-0.6
		c-0.8,0-1.7-0.1-2.4-0.5c-1.7-1-2.2-2.8-1-4.2C38.1,9.3,40.5,9,42.2,9.9z"/>
	<path id="XMLID_105_" class="st12" d="M27.4,7.8c2.7,1.5,3.4,4.4,1.6,6.5c-0.7,0.8-1.7,1.4-2.8,1.7v0L26,17.1l-1.3-0.9
		c-1.3,0.1-2.6-0.2-3.7-0.8c-2.7-1.5-3.4-4.4-1.6-6.5C21.1,6.9,24.7,6.3,27.4,7.8z"/>
	<g id="XMLID_102_">
		<linearGradient id="XMLID_3_" gradientUnits="userSpaceOnUse" x1="36.5558" y1="25.7246" x2="60.7423" y2="-2.8595">
			<stop  offset="5.376340e-002" style="stop-color:#88796E"/>
			<stop  offset="0.6962" style="stop-color:#604D3E"/>
			<stop  offset="1" style="stop-color:#362112"/>
		</linearGradient>
		<path id="XMLID_104_" class="st13" d="M42.3,20.7c1.2,0,2.2-0.8,2.2-1.8s-1-1.8-2.2-1.8c-1.2,0-2.2,0.8-2.2,1.8
			S41.1,20.7,42.3,20.7z"/>
		<linearGradient id="XMLID_4_" gradientUnits="userSpaceOnUse" x1="40.9321" y1="28.3173" x2="63.9799" y2="1.079">
			<stop  offset="5.376340e-002" style="stop-color:#88796E"/>
			<stop  offset="0.6962" style="stop-color:#604D3E"/>
			<stop  offset="1" style="stop-color:#362112"/>
		</linearGradient>
		<path id="XMLID_103_" class="st14" d="M47.1,26.2c0,0,0-0.1,0-0.1l-1-4.3c-0.1-0.4-0.5-0.7-1-0.7h-5.6c-0.5,0-0.9,0.3-1,0.7
			l-1,4.3c0,0,0,0.1,0,0.1c0,0,0,0.1,0,0.1c0,0.5,0.5,0.8,1,0.8c0.5,0,0.9-0.3,1-0.7l0.6-3.2l0,10.1c0,0.5,0.5,0.8,1,0.8
			c0.6,0,1-0.4,1-0.8v-5h0.2v5c0,0.5,0.5,0.8,1,0.8c0.6,0,1-0.4,1-0.8l0-10.1l0.6,3.2c0.1,0.4,0.5,0.7,1,0.7c0.6,0,1-0.4,1-0.8
			C47.1,26.3,47.1,26.2,47.1,26.2z"/>
	</g>
	<defs>
		<filter id="Adobe_OpacityMaskFilter" filterUnits="userSpaceOnUse" x="36.8" y="33.8" width="11" height="1">
			<feColorMatrix  type="matrix" values="1 0 0 0 0  0 1 0 0 0  0 0 1 0 0  0 0 0 1 0"/>
		</filter>
	</defs>
	<mask maskUnits="userSpaceOnUse" x="36.8" y="33.8" width="11" height="1" id="XMLID_5_">
		<g id="XMLID_31_" class="st15">
			
				<radialGradient id="XMLID_6_" cx="1627.4012" cy="-3140.4248" r="73.175" gradientTransform="matrix(7.546912e-002 0 0 6.570321e-003 -80.5264 54.8798)" gradientUnits="userSpaceOnUse">
				<stop  offset="0" style="stop-color:#FFFFFF"/>
				<stop  offset="1" style="stop-color:#171710"/>
			</radialGradient>
			<ellipse id="XMLID_34_" class="st16" cx="42.3" cy="34.2" rx="5.5" ry="0.5"/>
		</g>
	</mask>
	<linearGradient id="XMLID_7_" gradientUnits="userSpaceOnUse" x1="45.1875" y1="30.8245" x2="72.1457" y2="-1.0352">
		<stop  offset="5.376340e-002" style="stop-color:#88796E"/>
		<stop  offset="0.6962" style="stop-color:#604D3E"/>
		<stop  offset="1" style="stop-color:#362112"/>
	</linearGradient>
	<ellipse id="XMLID_99_" class="st17" cx="42.3" cy="34.2" rx="5.5" ry="0.5"/>
	<defs>
		<filter id="Adobe_OpacityMaskFilter_1_" filterUnits="userSpaceOnUse" x="22.7" y="33.5" width="11" height="1">
			<feColorMatrix  type="matrix" values="1 0 0 0 0  0 1 0 0 0  0 0 1 0 0  0 0 0 1 0"/>
		</filter>
	</defs>
	<mask maskUnits="userSpaceOnUse" x="22.7" y="33.5" width="11" height="1" id="XMLID_8_">
		<g id="XMLID_28_" class="st18">
			
				<radialGradient id="XMLID_9_" cx="1440.7953" cy="-3183.5222" r="73.175" gradientTransform="matrix(7.546912e-002 0 0 6.570321e-003 -80.5264 54.8798)" gradientUnits="userSpaceOnUse">
				<stop  offset="0" style="stop-color:#FFFFFF"/>
				<stop  offset="1" style="stop-color:#171710"/>
			</radialGradient>
			<ellipse id="XMLID_29_" class="st19" cx="28.2" cy="34" rx="5.5" ry="0.5"/>
		</g>
	</mask>
	<linearGradient id="XMLID_10_" gradientUnits="userSpaceOnUse" x1="36.7923" y1="23.8193" x2="63.7506" y2="-8.0404">
		<stop  offset="5.376340e-002" style="stop-color:#88796E"/>
		<stop  offset="0.6962" style="stop-color:#604D3E"/>
		<stop  offset="1" style="stop-color:#362112"/>
	</linearGradient>
	<ellipse id="XMLID_68_" class="st20" cx="28.2" cy="34" rx="5.5" ry="0.5"/>
	<g id="XMLID_53_" class="st21">
		<g id="XMLID_54_">
			<linearGradient id="XMLID_11_" gradientUnits="userSpaceOnUse" x1="27.8609" y1="19.5969" x2="52.0473" y2="-8.9871">
				<stop  offset="0.1452" style="stop-color:#F5814D"/>
				<stop  offset="0.5215" style="stop-color:#F26223"/>
				<stop  offset="0.8226" style="stop-color:#B64A26"/>
			</linearGradient>
			<path id="XMLID_57_" class="st22" d="M28.2,20.9c1.2,0,2.1-0.8,2.1-1.7c0-0.9-0.9-1.7-2.1-1.7c-1.2,0-2.1,0.8-2.1,1.7
				C26.1,20.1,27,20.9,28.2,20.9z"/>
			<linearGradient id="XMLID_12_" gradientUnits="userSpaceOnUse" x1="31.8431" y1="22.3899" x2="54.8908" y2="-4.8484">
				<stop  offset="0.1452" style="stop-color:#F5814D"/>
				<stop  offset="0.5215" style="stop-color:#F26223"/>
				<stop  offset="0.8226" style="stop-color:#B64A26"/>
			</linearGradient>
			<path id="XMLID_55_" class="st23" d="M32.8,26.2C32.9,26.2,32.9,26.1,32.8,26.2l-1-4.2c-0.1-0.4-0.5-0.7-1-0.7h-5.4
				c-0.5,0-0.9,0.3-1,0.7l-1,4.1c0,0,0,0.1,0,0.1c0,0,0,0.1,0,0.1c0,0.4,0.4,0.8,1,0.8c0.5,0,0.9-0.3,1-0.7l0.6-3.1l0,9.8
				c0,0.4,0.4,0.8,1,0.8c0.5,0,1-0.4,1-0.8v-4.9h0.2v4.9c0,0.4,0.4,0.8,1,0.8c0.5,0,1-0.4,1-0.8l0-9.8l0.6,3.1
				c0.1,0.4,0.5,0.6,1,0.6c0.5,0,1-0.4,1-0.8C32.9,26.3,32.8,26.2,32.8,26.2z"/>
		</g>
	</g>
	<g id="XMLID_23_">
		<linearGradient id="XMLID_13_" gradientUnits="userSpaceOnUse" x1="32.696" y1="23.0271" x2="56.8825" y2="-5.5569">
			<stop  offset="0.1317" style="stop-color:#7EBBBE"/>
			<stop  offset="0.5054" style="stop-color:#5EA9AE"/>
			<stop  offset="0.7285" style="stop-color:#5EA9AE"/>
			<stop  offset="0.8522" style="stop-color:#478084"/>
		</linearGradient>
		<path id="XMLID_52_" class="st24" d="M36.8,20.5c1.6,0,2.9-1,2.9-2.3c0-1.3-1.3-2.3-2.9-2.3c-1.6,0-2.9,1-2.9,2.3
			C33.9,19.5,35.2,20.5,36.8,20.5z"/>
		<linearGradient id="XMLID_14_" gradientUnits="userSpaceOnUse" x1="38.2535" y1="26.6056" x2="61.3012" y2="-0.6326">
			<stop  offset="0.1317" style="stop-color:#7EBBBE"/>
			<stop  offset="0.5054" style="stop-color:#5EA9AE"/>
			<stop  offset="0.7285" style="stop-color:#5EA9AE"/>
			<stop  offset="0.8522" style="stop-color:#478084"/>
		</linearGradient>
		<path id="XMLID_51_" class="st25" d="M43,27.7c0,0,0-0.1,0-0.1L41.7,22c-0.1-0.5-0.7-0.9-1.3-0.9h-7.3c-0.7,0-1.2,0.4-1.3,0.9
			l-1.3,5.6c0,0,0,0.1,0,0.1c0,0.1,0,0.1,0,0.1c0,0.6,0.6,1.1,1.3,1.1c0.6,0,1.2-0.4,1.3-0.9l0.8-4.2l0,13.3c0,0.6,0.6,1.1,1.3,1.1
			c0.7,0,1.3-0.5,1.3-1.1v-6.6h0.3v6.6c0,0.6,0.6,1.1,1.3,1.1c0.7,0,1.3-0.5,1.3-1.1l0-13.3l0.8,4.2c0.1,0.5,0.7,0.9,1.3,0.9
			c0.7,0,1.3-0.5,1.3-1.1C43,27.8,43,27.7,43,27.7z"/>
	</g>
	<path id="XMLID_22_" class="st26" d="M37.4,2.2c3.8,2.1,4.8,6.2,2.3,9.1c-1,1.2-2.4,2-3.9,2.4v0l-0.3,1.6l-1.9-1.2
		c-1.8,0.1-3.7-0.3-5.3-1.1c-3.8-2.1-4.8-6.2-2.3-9.1C28.5,0.8,33.6,0.1,37.4,2.2z"/>
</g>
</svg>
